<svg width="513" height="513" viewBox="0 0 513 513" fill="none" xmlns="http://www.w3.org/2000/svg">
<path fill-rule="evenodd" clip-rule="evenodd" d="M492.049 358.199C505.529 327.018 513 292.631 513 256.5C513 219.826 505.303 184.95 491.437 153.399H491.223L491.223 153.4H483.749C480.488 153.469 477.867 156.134 477.867 159.41V352.187C477.867 355.507 480.558 358.199 483.878 358.199H492.049ZM443.733 88.1379C443.733 86.5086 445.03 85.182 446.647 85.1334H447.144L447.143 85.132H447.357C456.895 95.7474 465.56 107.163 473.239 119.265H446.739C445.079 119.265 443.733 117.92 443.733 116.259V88.1379ZM39.7612 119.265C47.4278 107.182 56.0771 95.7844 65.5965 85.1837C66.994 85.4426 68.0526 86.6705 68.0526 88.1429V116.257C68.0526 117.887 66.7562 119.217 65.1386 119.265H39.7612ZM33.9193 352.188C33.9193 355.465 31.2976 358.13 28.0374 358.199H20.9513C7.47055 327.018 0 292.631 0 256.5C0 219.827 7.6964 184.951 21.5621 153.4H27.9076C31.2277 153.4 33.9193 156.092 33.9193 159.412V352.188ZM64.3918 426.465C54.982 415.838 46.4404 404.423 38.8784 392.333H65.0468C66.7068 392.333 68.0526 393.679 68.0526 395.339V423.461C68.0526 425.09 66.7561 426.417 65.1385 426.465H64.3918ZM256.5 513C198.091 513 144.241 493.477 101.122 460.6H411.664L411.666 460.599H411.88C368.76 493.476 314.91 513 256.5 513ZM443.733 395.338C443.733 393.708 445.03 392.382 446.647 392.333H473.907L473.908 392.332H474.122C466.56 404.422 458.018 415.837 448.608 426.465H446.739C445.079 426.465 443.733 425.12 443.733 423.459V395.338ZM102.977 50.9986C145.782 18.9692 198.926 0 256.5 0C314.074 0 367.218 18.9692 410.023 50.9986H102.977ZM238.719 153.4H74.1486C70.8883 153.469 68.2667 156.134 68.2667 159.41V352.187C68.2667 355.507 70.9582 358.199 74.2784 358.199H238.933H273.067H437.637C440.898 358.13 443.519 355.465 443.519 352.188V159.412C443.519 156.092 440.828 153.4 437.508 153.4H272.853H238.719ZM105.406 426.465H133.405C135.023 426.417 136.319 425.09 136.319 423.461V395.339C136.319 393.679 134.974 392.333 133.313 392.333H105.314C103.696 392.382 102.4 393.708 102.4 395.338V423.459C102.4 425.12 103.746 426.465 105.406 426.465ZM133.313 85.1334H105.314C103.696 85.182 102.4 86.5086 102.4 88.1379V116.259C102.4 117.92 103.746 119.265 105.406 119.265H133.405C135.023 119.217 136.319 117.89 136.319 116.261V88.1393C136.319 86.4792 134.974 85.1334 133.313 85.1334ZM173.673 426.465H201.672C203.289 426.417 204.586 425.09 204.586 423.461V395.339C204.586 393.679 203.24 392.333 201.58 392.333H173.581C171.963 392.382 170.667 393.708 170.667 395.338V423.459C170.667 425.12 172.012 426.465 173.673 426.465ZM201.58 85.1334H173.581C171.963 85.182 170.667 86.5086 170.667 88.1379V116.259C170.667 117.92 172.012 119.265 173.673 119.265H201.672C203.29 119.217 204.586 117.89 204.586 116.261V88.1393C204.586 86.4792 203.24 85.1334 201.58 85.1334ZM241.939 426.465H269.939C271.556 426.417 272.853 425.09 272.853 423.461V395.339C272.853 393.679 271.507 392.333 269.847 392.333H241.847C240.23 392.382 238.933 393.708 238.933 395.338V423.459C238.933 425.12 240.279 426.465 241.939 426.465ZM269.847 85.1334H241.847C240.23 85.182 238.933 86.5086 238.933 88.1379V116.259C238.933 117.92 240.279 119.265 241.939 119.265H269.939C271.556 119.217 272.853 117.89 272.853 116.261V88.1393C272.853 86.4792 271.507 85.1334 269.847 85.1334ZM310.206 426.465H338.205C339.823 426.417 341.119 425.09 341.119 423.461V395.339C341.119 393.679 339.774 392.333 338.113 392.333H310.114C308.496 392.382 307.2 393.708 307.2 395.338V423.459C307.2 425.12 308.546 426.465 310.206 426.465ZM338.113 85.1334H310.114C308.496 85.182 307.2 86.5086 307.2 88.1379V116.259C307.2 117.92 308.546 119.265 310.206 119.265H338.205C339.823 119.217 341.119 117.89 341.119 116.261V88.1393C341.119 86.4792 339.774 85.1334 338.113 85.1334ZM378.473 426.465H406.472C408.09 426.417 409.386 425.09 409.386 423.461V395.339C409.386 393.679 408.04 392.333 406.38 392.333H378.381C376.763 392.382 375.467 393.708 375.467 395.338V423.459C375.467 425.12 376.812 426.465 378.473 426.465ZM406.38 85.1334H378.381C376.763 85.182 375.467 86.5086 375.467 88.1379V116.259C375.467 117.92 376.812 119.265 378.473 119.265H406.472C408.09 119.217 409.386 117.89 409.386 116.261V88.1393C409.386 86.4792 408.04 85.1334 406.38 85.1334ZM178.899 292.939C177.716 295.496 175.453 297.207 172.91 297.777C173.49 297.642 174.064 297.444 174.625 297.181C178.927 295.159 180.781 290.025 178.773 285.692L175.109 277.783L170.982 268.875L194.48 218.034C195.484 215.966 197.234 214.344 199.353 213.567L199.41 213.546C206.629 210.9 213.409 218.352 210.167 225.359L182.519 285.115L178.899 292.939ZM170.982 268.875L163.212 285.686C161.209 290.02 163.066 295.15 167.368 297.169C169.166 298.013 171.108 298.181 172.91 297.777C169.005 298.687 164.856 296.76 163.094 292.96L131.777 225.436C130.85 223.332 130.741 220.94 131.512 218.805L131.533 218.747C134.16 211.477 144.186 211.035 147.432 218.041L170.982 268.875ZM171.981 286.438C173.586 287.027 174.389 288.758 173.805 290.374C173.221 291.99 171.501 292.797 169.896 292.208C168.291 291.62 167.489 289.888 168.073 288.273C168.657 286.657 170.377 285.85 171.981 286.438ZM234.287 184.334C236.321 182.293 239.086 181.141 241.973 181.141H289.333C292.221 181.141 294.985 182.293 297.019 184.334C299.053 186.374 300.191 189.136 300.191 192.01V222.557C300.191 226.685 296.844 230.031 292.716 230.031C288.588 230.031 285.241 226.685 285.241 222.557V196.091H246.065V249.022H275.059L271.778 245.732C268.863 242.809 268.869 238.076 271.792 235.161C274.715 232.246 279.448 232.252 282.363 235.175L287.745 240.572L287.747 240.573L298.511 251.373C301.418 254.29 301.418 259.009 298.512 261.926L287.748 272.729L287.745 272.732L282.363 278.128C279.448 281.051 274.715 281.057 271.792 278.142C268.869 275.227 268.863 270.494 271.778 267.571L275.368 263.972H246.065V316.903H285.241V290.437C285.241 286.309 288.588 282.963 292.716 282.963C296.844 282.963 300.191 286.309 300.191 290.437V320.984C300.191 323.858 299.053 326.62 297.019 328.661C294.985 330.702 292.221 331.853 289.333 331.853H241.973C239.086 331.853 236.321 330.702 234.287 328.661C232.254 326.62 231.116 323.858 231.116 320.984V192.01C231.116 189.136 232.254 186.374 234.287 184.334ZM323.162 181.141C320.274 181.141 317.51 182.293 315.475 184.334C313.442 186.374 312.304 189.136 312.304 192.01V222.557C312.304 226.685 315.651 230.031 319.779 230.031C323.907 230.031 327.254 226.685 327.254 222.557V196.091H366.429V249.022H337.852L341.133 245.732C344.048 242.809 344.042 238.076 341.119 235.161C338.196 232.246 333.463 232.252 330.548 235.175L325.166 240.572L325.163 240.574L315.133 250.641C314.312 251.293 313.631 252.114 313.144 253.051C311.585 255.887 312.005 259.519 314.402 261.926L325.167 272.729L325.167 272.73L330.546 278.126C333.46 281.05 338.193 281.058 341.117 278.144C344.041 275.23 344.049 270.497 341.135 267.573L337.546 263.972H366.429V316.903H327.254V290.437C327.254 286.309 323.907 282.963 319.779 282.963C315.651 282.963 312.304 286.309 312.304 290.437V320.984C312.304 323.858 313.442 326.62 315.475 328.661C317.51 330.702 320.274 331.853 323.162 331.853H370.521C373.409 331.853 376.173 330.702 378.208 328.661C380.241 326.62 381.379 323.858 381.379 320.984V256.497V192.01C381.379 189.136 380.241 186.374 378.208 184.334C376.173 182.293 373.409 181.141 370.521 181.141H323.162Z" fill="#F8F3F7"/>
</svg>
