<svg width="28" height="24" viewBox="0 0 28 24" fill="none" xmlns="http://www.w3.org/2000/svg">
<path d="M25.4074 3.69231H21L19.95 0.698901C19.8775 0.494071 19.7445 0.317017 19.5693 0.191926C19.3942 0.0668353 19.1853 -0.000192072 18.9713 4.13416e-07H9.0287C8.5912 4.13416e-07 8.19907 0.28022 8.05324 0.698901L7 3.69231H2.59259C1.16019 3.69231 0 4.87253 0 6.32967V21.3626C0 22.8198 1.16019 24 2.59259 24H25.4074C26.8398 24 28 22.8198 28 21.3626V6.32967C28 4.87253 26.8398 3.69231 25.4074 3.69231ZM14 18.7253C11.1352 18.7253 8.81481 16.3648 8.81481 13.4506C8.81481 10.5363 11.1352 8.17583 14 8.17583C16.8648 8.17583 19.1852 10.5363 19.1852 13.4506C19.1852 16.3648 16.8648 18.7253 14 18.7253ZM10.8889 13.4506C10.8889 14.2899 11.2167 15.0949 11.8001 15.6884C12.3836 16.2819 13.1749 16.6154 14 16.6154C14.8251 16.6154 15.6164 16.2819 16.1999 15.6884C16.7833 15.0949 17.1111 14.2899 17.1111 13.4506C17.1111 12.6112 16.7833 11.8062 16.1999 11.2127C15.6164 10.6192 14.8251 10.2857 14 10.2857C13.1749 10.2857 12.3836 10.6192 11.8001 11.2127C11.2167 11.8062 10.8889 12.6112 10.8889 13.4506Z" fill="#F8F3F7"/>
</svg>
