<svg width="32" height="32" viewBox="0 0 32 32" fill="none" xmlns="http://www.w3.org/2000/svg">
<path d="M31.2912 0.733057C31.0667 0.508049 30.7999 0.329536 30.5063 0.207737C30.2127 0.0859379 29.8979 0.0232434 29.5801 0.0232434C29.2622 0.0232434 28.9474 0.0859379 28.6538 0.207737C28.3602 0.329536 28.0934 0.508049 27.8689 0.733057L16 12.5777L4.13111 0.708785C3.90639 0.484072 3.63962 0.30582 3.34602 0.184207C3.05242 0.0625931 2.73774 2.36773e-09 2.41995 0C2.10215 -2.36773e-09 1.78747 0.0625931 1.49387 0.184207C1.20027 0.30582 0.933498 0.484072 0.708785 0.708785C0.484072 0.933498 0.30582 1.20027 0.184207 1.49387C0.0625931 1.78747 -2.36773e-09 2.10215 0 2.41995C2.36773e-09 2.73774 0.0625931 3.05242 0.184207 3.34602C0.30582 3.63962 0.484072 3.90639 0.708785 4.13111L12.5777 16L0.708785 27.8689C0.484072 28.0936 0.30582 28.3604 0.184207 28.654C0.0625931 28.9476 0 29.2623 0 29.5801C0 29.8978 0.0625931 30.2125 0.184207 30.5061C0.30582 30.7997 0.484072 31.0665 0.708785 31.2912C0.933498 31.5159 1.20027 31.6942 1.49387 31.8158C1.78747 31.9374 2.10215 32 2.41995 32C2.73774 32 3.05242 31.9374 3.34602 31.8158C3.63962 31.6942 3.90639 31.5159 4.13111 31.2912L16 19.4223L27.8689 31.2912C28.0936 31.5159 28.3604 31.6942 28.654 31.8158C28.9476 31.9374 29.2623 32 29.5801 32C29.8978 32 30.2125 31.9374 30.5061 31.8158C30.7997 31.6942 31.0665 31.5159 31.2912 31.2912C31.5159 31.0665 31.6942 30.7997 31.8158 30.5061C31.9374 30.2125 32 29.8978 32 29.5801C32 29.2623 31.9374 28.9476 31.8158 28.654C31.6942 28.3604 31.5159 28.0936 31.2912 27.8689L19.4223 16L31.2912 4.13111C32.2135 3.20878 32.2135 1.65538 31.2912 0.733057Z" fill="white"/>
</svg>
