<svg width="28" height="28" viewBox="0 0 28 28" fill="none" xmlns="http://www.w3.org/2000/svg">
<path fill-rule="evenodd" clip-rule="evenodd" d="M14 28C21.732 28 28 21.732 28 14C28 6.26801 21.732 0 14 0C6.26801 0 0 6.26801 0 14C0 21.732 6.26801 28 14 28ZM12.2345 8.36025C12.3045 9.0248 12.1908 9.64562 11.9371 10.1878L22.3913 20.6281C22.6188 20.8642 22.75 21.179 22.75 21.5025V21.5113C22.75 22.613 21.4203 23.1639 20.6417 22.3857L14.0017 15.749L11.9283 17.8038C12.182 18.3547 12.2957 18.9668 12.2258 19.6313C12.0595 21.144 10.8785 22.4206 9.3738 22.683C8.81744 22.7835 8.24501 22.7478 7.70544 22.579C7.16587 22.4103 6.67522 22.1134 6.27544 21.7138C5.87567 21.3142 5.57865 20.8238 5.40979 20.2845C5.24094 19.7452 5.20527 19.1731 5.30582 18.617C5.55953 17.113 6.84553 15.9326 8.35899 15.7664C9.02387 15.6965 9.645 15.8102 10.1874 16.0637L12.252 14.0001L10.1874 11.9278C9.63625 12.1814 9.02387 12.2951 8.35899 12.2251C6.84553 12.059 5.56827 10.8785 5.30582 9.37456C5.20612 8.81783 5.2427 8.24525 5.41244 7.70571C5.58219 7.16618 5.88005 6.67572 6.28061 6.27623C6.68116 5.87673 7.1725 5.58007 7.71266 5.41156C8.25282 5.24306 8.82576 5.20773 9.38255 5.30859C10.8873 5.56216 12.0683 6.84753 12.2345 8.36025ZM7.003 8.75373C7.003 9.72432 7.79035 10.5025 8.75267 10.5025C9.71498 10.5025 10.5023 9.72432 10.5023 8.75373C10.5023 7.78314 9.71498 7.00493 8.75267 7.00493C7.79035 7.00493 7.003 7.78314 7.003 8.75373ZM7.003 19.2466C7.003 20.2172 7.79035 20.9954 8.75267 20.9954C9.71498 20.9954 10.5023 20.2172 10.5023 19.2466C10.5023 18.276 9.71498 17.4978 8.75267 17.4978C7.79035 17.4978 7.003 18.276 7.003 19.2466ZM13.5642 14.0001C13.5642 14.245 13.7567 14.4374 14.0017 14.4374C14.2466 14.4374 14.4391 14.245 14.4391 14.0001C14.4391 13.7553 14.2466 13.5629 14.0017 13.5629C13.7567 13.5629 13.5642 13.7553 13.5642 14.0001ZM14.8765 11.3769L20.6417 5.61463C21.4203 4.83641 22.75 5.38728 22.75 6.48029V6.48903C22.75 6.8213 22.6188 7.13609 22.3913 7.36343L16.6262 13.1257L14.8765 11.3769Z" fill="#F8F3F7"/>
</svg>
