<svg width="32" height="42" viewBox="0 0 32 42" fill="none" xmlns="http://www.w3.org/2000/svg">
<path d="M9.14351 33.3277H22.8588C23.1834 33.3277 23.4546 33.218 23.6725 32.9986C23.892 32.7791 24.0017 32.5071 24.0017 32.1825C24.0017 31.8579 23.892 31.5866 23.6725 31.3687C23.4546 31.1508 23.1834 31.0418 22.8588 31.0418H9.14351C8.81892 31.0418 8.54766 31.1516 8.32974 31.371C8.11029 31.5904 8.00057 31.8625 8.00057 32.1871C8.00057 32.5117 8.11029 32.7829 8.32974 33.0008C8.54766 33.2188 8.81892 33.3277 9.14351 33.3277ZM9.14351 24.1842H22.8588C23.1834 24.1842 23.4546 24.0745 23.6725 23.855C23.892 23.6356 24.0017 23.3636 24.0017 23.039C24.0017 22.7144 23.892 22.4431 23.6725 22.2252C23.4546 22.0073 23.1834 21.8983 22.8588 21.8983H9.14351C8.81892 21.8983 8.54766 22.0081 8.32974 22.2275C8.11029 22.4469 8.00057 22.719 8.00057 23.0436C8.00057 23.3682 8.11029 23.6394 8.32974 23.8573C8.54766 24.0752 8.81892 24.1842 9.14351 24.1842ZM3.69169 41.3283C2.64019 41.3283 1.76241 40.9763 1.05836 40.2722C0.352787 39.5666 0 38.6881 0 37.6366V3.87419C0 2.82268 0.352787 1.94491 1.05836 1.24086C1.76241 0.535282 2.64019 0.182495 3.69169 0.182495H20.182C20.6864 0.182495 21.168 0.28155 21.6267 0.479659C22.0839 0.680817 22.4786 0.94674 22.8108 1.27743L30.9051 9.37172C31.2358 9.70241 31.5009 10.0971 31.7005 10.5558C31.9002 11.013 32 11.4945 32 12.0005V37.6343C32 38.6858 31.648 39.5636 30.9439 40.2676C30.2384 40.9732 29.3598 41.326 28.3083 41.326L3.69169 41.3283ZM20.5729 9.78318C20.5729 10.3013 20.7481 10.7356 21.0986 11.0861C21.4491 11.4366 21.8835 11.6119 22.4016 11.6119H29.7164L20.5729 2.46837V9.78318Z" fill="white"/>
</svg>
