<svg width="32" height="32" viewBox="0 0 32 32" fill="none" xmlns="http://www.w3.org/2000/svg">
<path d="M16 0C13.9077 0 12.3077 1.6 12.3077 3.69231V11.0769C12.3077 13.1692 13.9077 14.7692 16 14.7692H23.3846L28.3077 19.6923V14.7692C30.4 14.7692 32 13.1692 32 11.0769V3.69231C32 1.6 30.4 0 28.3077 0H16ZM21.1545 3.69231H23.2689L25.3465 11.0769H23.5003L22.9994 9.23077H21.1532L20.6929 11.0769H19.0769L21.1545 3.69231ZM22.1538 4.92308C22.0308 5.41538 21.8929 6.016 21.7686 6.38523L21.424 8H22.8849L22.5378 6.384C22.2929 6.016 22.1538 5.41538 22.1538 4.92308ZM3.69231 12.3077C1.6 12.3077 0 13.9077 0 16V23.3846C0 25.4769 1.6 27.0769 3.69231 27.0769V32L8.61538 27.0769H16C18.0923 27.0769 19.6923 25.4769 19.6923 23.3846V16H16C13.6615 16 11.808 14.4 11.1926 12.3077H3.69231ZM9.34646 15.8843C11.4388 15.8843 12.4234 17.6074 12.4234 19.5766C12.4234 21.2997 11.8314 22.3926 10.8468 22.8849C11.3391 23.1311 11.9225 23.2615 12.5378 23.3846L12.0775 24.6154C11.216 24.3692 10.3225 23.9852 9.46092 23.6148C9.33785 23.4917 9.12246 23.5003 8.99938 23.5003C7.52246 23.3772 6.15385 22.1538 6.15385 19.6923C6.15385 17.6 7.37723 15.8843 9.34646 15.8843ZM9.34646 17.2308C8.36185 17.2308 7.88431 18.3385 7.88431 19.6923C7.88431 21.1692 8.36185 22.1538 9.34646 22.1538C10.3311 22.1538 10.8455 21.0462 10.8455 19.6923C10.8455 18.3385 10.3311 17.2308 9.34646 17.2308Z" fill="white"/>
</svg>
