<svg width="28" height="28" viewBox="0 0 28 28" fill="none" xmlns="http://www.w3.org/2000/svg">
<path fill-rule="evenodd" clip-rule="evenodd" d="M14 28C21.732 28 28 21.732 28 14C28 6.26801 21.732 0 14 0C6.26801 0 0 6.26801 0 14C0 21.732 6.26801 28 14 28ZM14.4366 5.44165L22.3878 13.8566C22.8704 14.3677 22.8704 15.1957 22.3897 15.7069C22.1581 15.9542 21.8435 16.0912 21.5153 16.0912H20.6775V22.0958C20.6775 22.4576 20.4015 22.75 20.0598 22.75H14.9269V18.1704H12.7649V22.75H7.94093C7.59926 22.75 7.32322 22.4576 7.32322 22.0958V16.0912H6.48544C5.80402 16.0912 5.25 15.5045 5.25 14.7828C5.25 14.4352 5.38127 14.102 5.61291 13.8566L13.5641 5.44165C13.6213 5.3809 13.6894 5.3327 13.7642 5.29981C13.8391 5.26693 13.9193 5.25 14.0004 5.25C14.0814 5.25 14.1617 5.26693 14.2365 5.29981C14.3114 5.3327 14.3794 5.3809 14.4366 5.44165Z" fill="#F8F3F7"/>
</svg>
