<svg width="34" height="34" viewBox="0 0 34 34" fill="none" xmlns="http://www.w3.org/2000/svg">
<path d="M22.3333 33H6.33333C4.91884 33 3.56229 32.4381 2.5621 31.4379C1.5619 30.4377 1 29.0812 1 27.6667V25.8889H18.7778V29.4444C18.7778 30.3874 19.1524 31.2918 19.8192 31.9586C20.486 32.6254 21.3903 33 22.3333 33ZM22.3333 33C23.2763 33 24.1807 32.6254 24.8475 31.9586C25.5143 31.2918 25.8889 30.3874 25.8889 29.4444V4.55556C25.8889 3.85233 26.0974 3.1649 26.4881 2.5802C26.8788 1.99549 27.4341 1.53976 28.0838 1.27065C28.7335 1.00154 29.4484 0.931129 30.1381 1.06832C30.8278 1.20551 31.4613 1.54415 31.9586 2.0414C32.4559 2.53865 32.7945 3.17219 32.9317 3.8619C33.0689 4.55161 32.9985 5.26652 32.7293 5.91621C32.4602 6.5659 32.0045 7.1212 31.4198 7.51189C30.8351 7.90258 30.1477 8.11111 29.4444 8.11111H25.8889L22.3333 33ZM29.4444 1H9.88889C8.4744 1 7.11785 1.5619 6.11765 2.5621C5.11746 3.56229 4.55556 4.91885 4.55556 6.33333V25.8889" stroke="#F8F3F7" stroke-width="2" stroke-linecap="round" stroke-linejoin="round"/>
<path d="M11.6666 8.11133H18.7777" stroke="#F8F3F7" stroke-width="2" stroke-linecap="round" stroke-linejoin="round"/>
<path d="M11.6666 15.2227H18.7777" stroke="#F8F3F7" stroke-width="2" stroke-linecap="round" stroke-linejoin="round"/>
</svg>
