<svg width="32" height="42" viewBox="0 0 32 42" fill="none" xmlns="http://www.w3.org/2000/svg">
<path d="M16 22.1061C14.3333 22.1061 12.9167 21.5227 11.75 20.3561C10.5833 19.1894 10 17.7727 10 16.1061C10 14.4394 10.5833 13.0227 11.75 11.8561C12.9167 10.6894 14.3333 10.1061 16 10.1061C17.6667 10.1061 19.0833 10.6894 20.25 11.8561C21.4167 13.0227 22 14.4394 22 16.1061C22 17.7727 21.4167 19.1894 20.25 20.3561C19.0833 21.5227 17.6667 22.1061 16 22.1061ZM16 38.1061L6.65 41.2061C5.98333 41.4394 5.37467 41.3561 4.824 40.9561C4.27333 40.5561 3.99867 40.0227 4 39.3561V26.6561C2.73333 25.2561 1.75 23.6561 1.05 21.8561C0.35 20.0561 0 18.1394 0 16.1061C0 11.6394 1.55 7.85608 4.65 4.75608C7.75 1.65608 11.5333 0.106079 16 0.106079C20.4667 0.106079 24.25 1.65608 27.35 4.75608C30.45 7.85608 32 11.6394 32 16.1061C32 18.1394 31.65 20.0561 30.95 21.8561C30.25 23.6561 29.2667 25.2561 28 26.6561V39.3561C28 40.0227 27.7247 40.5561 27.174 40.9561C26.6233 41.3561 26.0153 41.4394 25.35 41.2061L16 38.1061ZM16 28.1061C19.3333 28.1061 22.1667 26.9394 24.5 24.6061C26.8333 22.2727 28 19.4394 28 16.1061C28 12.7727 26.8333 9.93941 24.5 7.60608C22.1667 5.27275 19.3333 4.10608 16 4.10608C12.6667 4.10608 9.83333 5.27275 7.5 7.60608C5.16667 9.93941 4 12.7727 4 16.1061C4 19.4394 5.16667 22.2727 7.5 24.6061C9.83333 26.9394 12.6667 28.1061 16 28.1061Z" fill="white"/>
</svg>
