<svg width="32" height="27" viewBox="0 0 32 27" fill="none" xmlns="http://www.w3.org/2000/svg">
<path d="M28.8 0.582489H3.2C1.44 0.582489 0 2.02249 0 3.78249V22.9825C0 24.7425 1.44 26.1825 3.2 26.1825H28.8C30.56 26.1825 32 24.7425 32 22.9825V3.78249C32 2.02249 30.56 0.582489 28.8 0.582489ZM28.16 7.38249L17.696 13.9265C16.656 14.5825 15.344 14.5825 14.304 13.9265L3.84 7.38249C3.67956 7.29243 3.53907 7.17075 3.42702 7.02482C3.31497 6.87888 3.2337 6.71173 3.18812 6.53348C3.14254 6.35523 3.1336 6.16959 3.16185 5.98778C3.1901 5.80597 3.25494 5.63179 3.35245 5.47577C3.44996 5.31975 3.57812 5.18514 3.72916 5.08008C3.8802 4.97502 4.05099 4.90171 4.23119 4.86457C4.41139 4.82743 4.59725 4.82724 4.77753 4.86401C4.9578 4.90078 5.12874 4.97374 5.28 5.07849L16 11.7825L26.72 5.07849C26.8713 4.97374 27.0422 4.90078 27.2225 4.86401C27.4027 4.82724 27.5886 4.82743 27.7688 4.86457C27.949 4.90171 28.1198 4.97502 28.2708 5.08008C28.4219 5.18514 28.55 5.31975 28.6475 5.47577C28.7451 5.63179 28.8099 5.80597 28.8382 5.98778C28.8664 6.16959 28.8575 6.35523 28.8119 6.53348C28.7663 6.71173 28.685 6.87888 28.573 7.02482C28.4609 7.17075 28.3204 7.29243 28.16 7.38249Z" fill="white"/>
</svg>
