<svg width="32" height="22" viewBox="0 0 32 22" fill="none" xmlns="http://www.w3.org/2000/svg">
<path d="M1.02045 2.28622L14.3538 9.44889C14.8018 9.68889 15.3813 9.80266 15.9644 9.80266C16.5476 9.80266 17.1271 9.68889 17.5751 9.44889L30.9084 2.28622C31.7778 1.81867 32.5991 0 31.0044 0H0.926225C-0.668441 0 0.152892 1.81867 1.02045 2.28622V2.28622ZM31.312 6.20266L17.5751 13.3618C16.9707 13.6782 16.5476 13.7156 15.9644 13.7156C15.3813 13.7156 14.9582 13.6782 14.3538 13.3618C13.7493 13.0453 1.67289 6.71466 0.686225 6.20089C-0.00710816 5.83822 2.87299e-06 6.26311 2.87299e-06 6.59022V19.5556C2.87299e-06 20.3022 1.00623 21.3333 1.77778 21.3333H30.2222C30.9938 21.3333 32 20.3022 32 19.5556V6.592C32 6.26489 32.0071 5.84 31.312 6.20266V6.20266Z" fill="#F8F3F7"/>
</svg>
