<svg width="320" height="320" viewBox="0 0 320 320" fill="none" xmlns="http://www.w3.org/2000/svg">
<path fill-rule="evenodd" clip-rule="evenodd" d="M160 320C248.366 320 320 248.366 320 160C320 71.6344 248.366 0 160 0C71.6344 0 0 71.6344 0 160C0 248.366 71.6344 320 160 320ZM122.582 134.53L153.829 159.255C154.326 159.627 154.326 160.373 153.829 160.745L122.582 185.47C121.982 185.967 121.071 185.511 121.071 184.724V170.04H98.0808V221.919H128.323V201.414C128.323 200.959 128.696 200.586 129.152 200.586H147.576C148.031 200.586 148.404 200.959 148.404 201.414V236.202C148.404 239.412 145.816 242 142.606 242H83.798C80.5884 242 78 239.412 78 236.202V83.798C78 80.5884 80.5884 78 83.798 78H142.606C145.816 78 148.404 80.5884 148.404 83.798V118.586C148.404 119.041 148.031 119.414 147.576 119.414H129.152C128.696 119.414 128.323 119.041 128.323 118.586V98.0808H98.0808V149.96H121.071V135.276C121.071 134.489 121.961 134.033 122.582 134.53ZM177.394 78H236.202C239.412 78 242 80.5884 242 83.798V236.202C242 239.412 239.412 242 236.202 242H177.394C174.184 242 171.596 239.412 171.596 236.202V201.414C171.596 200.959 171.969 200.586 172.424 200.586H190.848C191.304 200.586 191.677 200.959 191.677 201.414V221.919H221.919V170.04H198.929V184.724C198.929 185.511 198.018 185.946 197.418 185.47L166.15 160.725C165.674 160.352 165.674 159.627 166.15 159.255L197.418 134.53C198.039 134.033 198.929 134.489 198.929 135.276V149.96H221.919V98.0808H191.677V118.586C191.677 119.041 191.304 119.414 190.848 119.414H172.424C171.969 119.414 171.596 119.041 171.596 118.586V83.798C171.596 80.5884 174.184 78 177.394 78Z" fill="white"/>
</svg>
