<svg width="320" height="320" viewBox="0 0 320 320" fill="none" xmlns="http://www.w3.org/2000/svg">
<path fill-rule="evenodd" clip-rule="evenodd" d="M160 320C248.366 320 320 248.366 320 160C320 71.6344 248.366 0 160 0C71.6344 0 0 71.6344 0 160C0 248.366 71.6344 320 160 320ZM122.582 133.53L153.829 159.255C154.326 159.627 154.326 160.373 153.829 160.745L122.582 186.47C121.982 186.967 121.071 186.511 121.071 185.724V172.04H102.081V217.919H124.323V201.414C124.323 200.959 124.696 200.586 125.152 200.586H147.576C148.031 200.586 148.404 200.959 148.404 201.414V236.202C148.404 239.412 145.816 242 142.606 242H83.798C80.5884 242 78 239.412 78 236.202V83.798C78 80.5884 80.5884 78 83.798 78H142.606C145.816 78 148.404 80.5884 148.404 83.798V118.586C148.404 119.041 148.031 119.414 147.576 119.414H125.152C124.696 119.414 124.323 119.041 124.323 118.586V102.081H102.081V147.96H121.071V134.276C121.071 133.489 121.961 133.033 122.582 133.53ZM177.394 78H236.202C239.412 78 242 80.5884 242 83.798V236.202C242 239.412 239.412 242 236.202 242H177.394C174.184 242 171.596 239.412 171.596 236.202V201.414C171.596 200.959 171.969 200.586 172.424 200.586H194.848C195.304 200.586 195.677 200.959 195.677 201.414V217.919H217.919V172.04H198.929V185.724C198.929 186.511 198.018 186.946 197.418 186.47L166.15 160.725C165.674 160.352 165.674 159.627 166.15 159.255L197.418 133.53C198.039 133.033 198.929 133.489 198.929 134.276V147.96H217.919V102.081H195.677V118.586C195.677 119.041 195.304 119.414 194.848 119.414H172.424C171.969 119.414 171.596 119.041 171.596 118.586V83.798C171.596 80.5884 174.184 78 177.394 78Z" fill="white"/>
</svg>
