<svg width="490" height="275" viewBox="0 0 490 275" fill="none" xmlns="http://www.w3.org/2000/svg">
<path fill-rule="evenodd" clip-rule="evenodd" d="M90.0127 230.819C96.2253 230.015 101.907 226.137 104.747 220.03L112.698 202.935L173.178 72.8956C180.27 57.6472 165.439 41.431 149.648 47.1895L149.523 47.2352C144.886 48.9262 141.059 52.4559 138.862 56.9562L87.4612 167.595L35.9444 56.9706C28.845 41.7257 6.91348 42.6862 1.16629 58.5075L1.12068 58.6331C-0.566981 63.279 -0.328306 68.4853 1.70006 73.0644L70.2364 220.075C73.8398 227.804 81.9958 231.955 90.0127 230.819ZM90.0127 230.819C91.8204 230.563 93.621 230.038 95.3608 229.225C104.799 224.812 108.876 213.58 104.472 204.123L96.4888 186.98L87.4612 167.595L70.4969 204.11C66.1029 213.568 70.1864 224.793 79.6239 229.2C82.9894 230.771 86.582 231.264 90.0127 230.819ZM93.6353 214.38C94.9125 210.864 93.1576 207.096 89.6469 205.815C86.1362 204.535 82.3744 206.291 81.0972 209.807C79.8201 213.323 81.575 217.092 85.0856 218.372C88.5963 219.652 92.3582 217.896 93.6353 214.38Z" fill="#F8F3F7"/>
<g clip-path="url(#clip0_201_60)">
<path d="M328.146 76.1865V20.1849C328.146 18.5346 327.493 16.9519 326.33 15.785C325.167 14.618 323.589 13.9625 321.944 13.9625H235.118C233.473 13.9625 231.896 14.618 230.733 15.785C229.57 16.9519 228.916 18.5346 228.916 20.1849V256.636C228.916 258.287 229.57 259.869 230.733 261.036C231.896 262.203 233.473 262.859 235.118 262.859H321.944C323.589 262.859 325.167 262.203 326.33 261.036C327.493 259.869 328.146 258.287 328.146 256.636V200.635" stroke="#F8F3F7" stroke-width="27.3333" stroke-linecap="round"/>
<path d="M377.761 200.635V256.636C377.761 258.287 378.414 259.869 379.577 261.036C380.741 262.203 382.318 262.859 383.963 262.859H470.789C472.434 262.859 474.011 262.203 475.174 261.036C476.338 259.869 476.991 258.287 476.991 256.636V20.1849C476.991 18.5346 476.338 16.9519 475.174 15.785C474.011 14.618 472.434 13.9625 470.789 13.9625H383.963C382.318 13.9625 380.741 14.618 379.577 15.785C378.414 16.9519 377.761 18.5346 377.761 20.1849V76.1865" stroke="#F8F3F7" stroke-width="27.3333" stroke-linecap="round"/>
<path d="M377.761 138.411H476.991" stroke="#F8F3F7" stroke-width="27.3333" stroke-linecap="round"/>
<path d="M235.118 138.411H328.146" stroke="#F8F3F7" stroke-width="27.3333" stroke-linecap="round"/>
<path d="M407.208 168.39L397.347 158.497L377.612 138.691L397.34 118.891L407.208 108.997" stroke="#F8F3F7" stroke-width="27.3333" stroke-linecap="round" stroke-linejoin="round"/>
<path d="M299.462 168.39L309.33 158.497L329.064 138.691L309.33 118.891L299.462 108.997" stroke="#F8F3F7" stroke-width="27.3333" stroke-linecap="round" stroke-linejoin="round"/>
</g>
<defs>
<clipPath id="clip0_201_60">
<rect width="275" height="275" fill="white" transform="translate(215)"/>
</clipPath>
</defs>
</svg>
