<svg width="320" height="320" viewBox="0 0 320 320" fill="none" xmlns="http://www.w3.org/2000/svg">
<path fill-rule="evenodd" clip-rule="evenodd" d="M160 320C248.366 320 320 248.366 320 160C320 71.6344 248.366 0 160 0C71.6344 0 0 71.6344 0 160C0 248.366 71.6344 320 160 320ZM87 169C91.9706 169 96 164.971 96 160C96 155.029 91.9706 151 87 151C82.0294 151 78 155.029 78 160C78 164.971 82.0294 169 87 169ZM169 160C169 164.971 164.971 169 160 169C155.029 169 151 164.971 151 160C151 155.029 155.029 151 160 151C164.971 151 169 155.029 169 160ZM233 169C237.971 169 242 164.971 242 160C242 155.029 237.971 151 233 151C228.029 151 224 155.029 224 160C224 164.971 228.029 169 233 169Z" fill="white"/>
</svg>
