<svg width="320" height="320" viewBox="0 0 320 320" fill="none" xmlns="http://www.w3.org/2000/svg">
<path fill-rule="evenodd" clip-rule="evenodd" d="M160 320C248.366 320 320 248.366 320 160C320 71.6344 248.366 0 160 0C71.6344 0 0 71.6344 0 160C0 248.366 71.6344 320 160 320ZM88 172C94.6274 172 100 166.627 100 160C100 153.373 94.6274 148 88 148C81.3726 148 76 153.373 76 160C76 166.627 81.3726 172 88 172ZM172 160C172 166.627 166.627 172 160 172C153.373 172 148 166.627 148 160C148 153.373 153.373 148 160 148C166.627 148 172 153.373 172 160ZM232 172C238.627 172 244 166.627 244 160C244 153.373 238.627 148 232 148C225.373 148 220 153.373 220 160C220 166.627 225.373 172 232 172Z" fill="white"/>
</svg>
