<svg width="28" height="28" viewBox="0 0 28 28" fill="none" xmlns="http://www.w3.org/2000/svg">
<path d="M14 0C10.287 0 6.72601 1.475 4.10051 4.10051C1.475 6.72601 0 10.287 0 14C0 17.713 1.475 21.274 4.10051 23.8995C6.72601 26.525 10.287 28 14 28C17.713 28 21.274 26.525 23.8995 23.8995C26.525 21.274 28 17.713 28 14C28 10.287 26.525 6.72601 23.8995 4.10051C21.274 1.475 17.713 0 14 0ZM8.75 14C8.75 14.4641 8.56563 14.9092 8.23744 15.2374C7.90925 15.5656 7.46413 15.75 7 15.75C6.53587 15.75 6.09075 15.5656 5.76256 15.2374C5.43437 14.9092 5.25 14.4641 5.25 14C5.25 13.5359 5.43437 13.0908 5.76256 12.7626C6.09075 12.4344 6.53587 12.25 7 12.25C7.46413 12.25 7.90925 12.4344 8.23744 12.7626C8.56563 13.0908 8.75 13.5359 8.75 14ZM15.75 14C15.75 14.4641 15.5656 14.9092 15.2374 15.2374C14.9092 15.5656 14.4641 15.75 14 15.75C13.5359 15.75 13.0908 15.5656 12.7626 15.2374C12.4344 14.9092 12.25 14.4641 12.25 14C12.25 13.5359 12.4344 13.0908 12.7626 12.7626C13.0908 12.4344 13.5359 12.25 14 12.25C14.4641 12.25 14.9092 12.4344 15.2374 12.7626C15.5656 13.0908 15.75 13.5359 15.75 14ZM22.75 14C22.75 14.4641 22.5656 14.9092 22.2374 15.2374C21.9092 15.5656 21.4641 15.75 21 15.75C20.5359 15.75 20.0908 15.5656 19.7626 15.2374C19.4344 14.9092 19.25 14.4641 19.25 14C19.25 13.5359 19.4344 13.0908 19.7626 12.7626C20.0908 12.4344 20.5359 12.25 21 12.25C21.4641 12.25 21.9092 12.4344 22.2374 12.7626C22.5656 13.0908 22.75 13.5359 22.75 14Z" fill="#F8F3F7"/>
</svg>
