<svg width="32" height="32" viewBox="0 0 32 32" fill="none" xmlns="http://www.w3.org/2000/svg">
<path d="M16 32C13.8133 32 11.7467 31.5797 9.8 30.7392C7.85333 29.8987 6.1536 28.752 4.7008 27.2992C3.24693 25.8464 2.10027 24.1467 1.2608 22.2C0.421333 20.2533 0.00106667 18.1867 0 16C0 13.7867 0.4336 11.7067 1.3008 9.76C2.168 7.81333 3.34133 6.12 4.8208 4.68C6.30027 3.24 8.02667 2.10027 10 1.2608C11.9733 0.421333 14.08 0.00106667 16.32 0C18.4533 0 20.4667 0.366933 22.36 1.1008C24.2533 1.83467 25.9136 2.848 27.3408 4.1408C28.7669 5.4336 29.9003 6.96693 30.7408 8.7408C31.5813 10.5147 32.0011 12.4277 32 14.48C32 17.5467 31.0667 19.9003 29.2 21.5408C27.3333 23.1813 25.0667 24.0011 22.4 24H19.44C19.2 24 19.0336 24.0667 18.9408 24.2C18.848 24.3333 18.8011 24.48 18.8 24.64C18.8 24.96 19 25.4203 19.4 26.0208C19.8 26.6213 20 27.3077 20 28.08C20 29.4133 19.6336 30.4 18.9008 31.04C18.168 31.68 17.2011 32 16 32ZM7.2 17.6C7.89333 17.6 8.46667 17.3733 8.92 16.92C9.37333 16.4667 9.6 15.8933 9.6 15.2C9.6 14.5067 9.37333 13.9333 8.92 13.48C8.46667 13.0267 7.89333 12.8 7.2 12.8C6.50667 12.8 5.93333 13.0267 5.48 13.48C5.02667 13.9333 4.8 14.5067 4.8 15.2C4.8 15.8933 5.02667 16.4667 5.48 16.92C5.93333 17.3733 6.50667 17.6 7.2 17.6ZM12 11.2C12.6933 11.2 13.2667 10.9733 13.72 10.52C14.1733 10.0667 14.4 9.49333 14.4 8.8C14.4 8.10667 14.1733 7.53333 13.72 7.08C13.2667 6.62667 12.6933 6.4 12 6.4C11.3067 6.4 10.7333 6.62667 10.28 7.08C9.82667 7.53333 9.6 8.10667 9.6 8.8C9.6 9.49333 9.82667 10.0667 10.28 10.52C10.7333 10.9733 11.3067 11.2 12 11.2ZM20 11.2C20.6933 11.2 21.2667 10.9733 21.72 10.52C22.1733 10.0667 22.4 9.49333 22.4 8.8C22.4 8.10667 22.1733 7.53333 21.72 7.08C21.2667 6.62667 20.6933 6.4 20 6.4C19.3067 6.4 18.7333 6.62667 18.28 7.08C17.8267 7.53333 17.6 8.10667 17.6 8.8C17.6 9.49333 17.8267 10.0667 18.28 10.52C18.7333 10.9733 19.3067 11.2 20 11.2ZM24.8 17.6C25.4933 17.6 26.0667 17.3733 26.52 16.92C26.9733 16.4667 27.2 15.8933 27.2 15.2C27.2 14.5067 26.9733 13.9333 26.52 13.48C26.0667 13.0267 25.4933 12.8 24.8 12.8C24.1067 12.8 23.5333 13.0267 23.08 13.48C22.6267 13.9333 22.4 14.5067 22.4 15.2C22.4 15.8933 22.6267 16.4667 23.08 16.92C23.5333 17.3733 24.1067 17.6 24.8 17.6Z" fill="white"/>
</svg>
