<svg width="32" height="37" viewBox="0 0 32 37" fill="none" xmlns="http://www.w3.org/2000/svg">
<path d="M16 17.4807C14.6286 17.4807 13.7143 18.4007 13.7143 19.7808C13.7143 20.7008 14.4 21.3908 15.0857 21.6208L14.4 24.841H17.3714L16.6857 21.6208C17.6 21.3908 18.0571 20.7008 18.0571 19.7808C18.2857 18.4007 17.3714 17.4807 16 17.4807ZM16.2286 7.5903C14.6286 7.5903 13.0286 8.74034 13.0286 10.3504V13.8005H19.2V10.3504C18.9714 8.74034 17.8286 7.5903 16.2286 7.5903ZM16.792 0.341572C16.2865 0.123562 15.7135 0.123562 15.208 0.341571L1.20798 6.37931C0.474852 6.69548 0 7.4174 0 8.2158V13.8005C0.222613 23.6571 6.29908 32.4228 15.2732 36.2729C15.7371 36.4719 16.2629 36.4719 16.7268 36.2729C25.7009 32.4228 31.7774 23.6571 32 13.8005V8.2158C32 7.4174 31.5252 6.69548 30.792 6.37931L16.792 0.341572ZM25.1429 25.301C25.1429 26.681 24.2286 27.6011 22.8571 27.6011H9.14286C7.77143 27.6011 6.85714 26.681 6.85714 25.301V16.1006C6.85714 14.7206 7.77143 13.8005 9.14286 13.8005H9.82857V10.3504C10.0571 7.13028 12.8 4.60018 16 4.60018C19.2 4.60018 21.9429 7.13028 22.1714 10.3504V13.8005H22.8571C24.2286 13.8005 25.1429 14.7206 25.1429 16.1006V25.301Z" fill="#F8F3F7"/>
</svg>
