<svg width="32" height="40" viewBox="0 0 32 40" fill="none" xmlns="http://www.w3.org/2000/svg">
<path d="M2.11556 6.16386C0.835556 6.73275 0 8.01275 0 9.4172V17.7728C0 27.6394 6.82667 36.8661 16 39.1061C25.1733 36.8661 32 27.6394 32 17.7728V9.4172C32 8.01275 31.1644 6.73275 29.8844 6.16386L17.44 0.634975C16.5156 0.226086 15.4667 0.226086 14.56 0.634975L2.11556 6.16386ZM16 10.6616C16.9778 10.6616 17.7778 11.4616 17.7778 12.4394C17.7778 13.4172 16.9778 14.2172 16 14.2172C15.0222 14.2172 14.2222 13.4172 14.2222 12.4394C14.2222 11.4616 15.0222 10.6616 16 10.6616ZM16 17.7728C16.9778 17.7728 17.7778 18.5728 17.7778 19.5505V26.6616C17.7778 27.6394 16.9778 28.4394 16 28.4394C15.0222 28.4394 14.2222 27.6394 14.2222 26.6616V19.5505C14.2222 18.5728 15.0222 17.7728 16 17.7728Z" fill="white"/>
</svg>
