<svg width="28" height="28" viewBox="0 0 28 28" fill="none" xmlns="http://www.w3.org/2000/svg">
<path d="M9.98725 14.586C9.82582 14.395 9.63271 14.2426 9.41921 14.1378C9.2057 14.033 8.97607 13.9778 8.7437 13.9755C8.51134 13.9732 8.2809 14.0238 8.06583 14.1244C7.85076 14.2249 7.65537 14.3734 7.49106 14.5612C7.32675 14.749 7.1968 14.9723 7.10881 15.2181C7.02082 15.4639 6.97654 15.7272 6.97856 15.9928C6.98058 16.2584 7.02886 16.5208 7.12057 16.7648C7.21229 17.0088 7.34561 17.2295 7.51275 17.414L12.7628 23.414C13.0909 23.7889 13.536 23.9996 14 23.9996C14.464 23.9996 14.9091 23.7889 15.2372 23.414L20.4872 17.414C20.806 17.0368 20.9824 16.5316 20.9784 16.0072C20.9744 15.4828 20.7904 14.9812 20.4659 14.6104C20.1415 14.2395 19.7025 14.0292 19.2437 14.0247C18.7849 14.0201 18.3428 14.2217 18.0128 14.586L15.75 17.172V6H24.5C25.4283 6 26.3185 6.42143 26.9749 7.17157C27.6313 7.92172 28 8.93913 28 10V24C28 25.0609 27.6313 26.0783 26.9749 26.8284C26.3185 27.5786 25.4283 28 24.5 28H3.5C2.57174 28 1.6815 27.5786 1.02513 26.8284C0.368749 26.0783 0 25.0609 0 24V10C0 8.93913 0.368749 7.92172 1.02513 7.17157C1.6815 6.42143 2.57174 6 3.5 6H12.25V17.172L9.98725 14.586Z" fill="#F8F3F7"/>
<path d="M12.25 2C12.25 1.46957 12.4344 0.960859 12.7626 0.585786C13.0908 0.210714 13.5359 0 14 0C14.4641 0 14.9092 0.210714 15.2374 0.585786C15.5656 0.960859 15.75 1.46957 15.75 2V6H12.25V2Z" fill="#F8F3F7"/>
</svg>
