<svg width="32" height="39" viewBox="0 0 32 39" fill="none" xmlns="http://www.w3.org/2000/svg">
<path d="M26.4914 13.7143H22.8571V2.28571C22.8571 1.02857 21.8286 0 20.5714 0H11.4286C10.1714 0 9.14286 1.02857 9.14286 2.28571V13.7143H5.50857C3.47429 13.7143 2.44571 16.1829 3.88571 17.6229L14.3771 28.1143C15.2686 29.0057 16.7086 29.0057 17.6 28.1143L28.0914 17.6229C29.5314 16.1829 28.5257 13.7143 26.4914 13.7143ZM0 36.5714C0 37.8286 1.02857 38.8571 2.28571 38.8571H29.7143C30.9714 38.8571 32 37.8286 32 36.5714C32 35.3143 30.9714 34.2857 29.7143 34.2857H2.28571C1.02857 34.2857 0 35.3143 0 36.5714Z" fill="white"/>
</svg>
