<svg width="28" height="28" viewBox="0 0 28 28" fill="none" xmlns="http://www.w3.org/2000/svg">
<path d="M27.6537 11.8721L24.524 10.9388C24.3076 10.184 24.01 9.45485 23.6364 8.7641L25.1686 5.89878C25.2261 5.79062 25.2471 5.66683 25.2286 5.54578C25.2101 5.42472 25.153 5.31286 25.0658 5.22678L22.833 2.98679C22.7468 2.89969 22.6348 2.84265 22.5137 2.82416C22.3925 2.80566 22.2686 2.82669 22.1603 2.88413L19.3109 4.40545C18.6126 4.01407 17.8732 3.70106 17.1061 3.47213L16.1718 0.382808C16.1323 0.268957 16.0576 0.170568 15.9586 0.101803C15.8595 0.0330378 15.7412 -0.00255661 15.6206 0.000142957H12.4628C12.3415 0.000707223 12.2236 0.039935 12.1261 0.112117C12.0286 0.1843 11.9568 0.28567 11.921 0.401474L10.9867 3.48146C10.2132 3.70917 9.46743 4.02221 8.76323 4.41479L5.96049 2.90279C5.85223 2.84536 5.72832 2.82433 5.60714 2.84282C5.48597 2.86132 5.37399 2.91835 5.28783 3.00546L3.01762 5.21745C2.93042 5.30352 2.87333 5.41539 2.85482 5.53644C2.83631 5.6575 2.85736 5.78129 2.91485 5.88945L4.42833 8.68943C4.036 9.38998 3.72267 10.1318 3.49408 10.9014L0.401726 11.8348C0.285807 11.8705 0.184338 11.9423 0.112085 12.0397C0.0398312 12.137 0.000564821 12.2549 0 12.3761V15.5307C0.000564821 15.6519 0.0398312 15.7698 0.112085 15.8671C0.184338 15.9645 0.285807 16.0363 0.401726 16.0721L3.51277 17.0054C3.74385 17.7621 4.05713 18.4914 4.44701 19.18L2.91485 22.1107C2.85736 22.2189 2.83631 22.3426 2.85482 22.4637C2.87333 22.5848 2.93042 22.6966 3.01762 22.7827L5.25046 25.0133C5.33662 25.1005 5.4486 25.1575 5.56977 25.176C5.69095 25.1945 5.81486 25.1734 5.92312 25.116L8.80994 23.576C9.49284 23.9442 10.2132 24.2383 10.9587 24.4534L11.893 27.5987C11.9288 27.7145 12.0006 27.8158 12.0981 27.888C12.1955 27.9602 12.3135 27.9994 12.4348 28H15.5926C15.7139 27.9994 15.8319 27.9602 15.9293 27.888C16.0268 27.8158 16.0986 27.7145 16.1344 27.5987L17.0687 24.444C17.8078 24.2278 18.5219 23.9337 19.1988 23.5667L22.1043 25.116C22.2125 25.1734 22.3364 25.1945 22.4576 25.176C22.5788 25.1575 22.6908 25.1005 22.7769 25.0133L25.0098 22.7827C25.097 22.6966 25.1541 22.5848 25.1726 22.4637C25.1911 22.3426 25.17 22.2189 25.1125 22.1107L23.5617 19.2174C23.9329 18.5386 24.2305 17.8221 24.4492 17.0801L27.5976 16.1467C27.7136 16.111 27.815 16.0392 27.8873 15.9418C27.9595 15.8445 27.9988 15.7266 27.9994 15.6054V12.4227C28.0049 12.3067 27.9747 12.1917 27.9129 12.0933C27.8511 11.9949 27.7607 11.9177 27.6537 11.8721ZM14.0417 19.1334C13.0255 19.1334 12.032 18.8323 11.187 18.2683C10.342 17.7042 9.68341 16.9025 9.2945 15.9645C8.90559 15.0265 8.80383 13.9944 9.0021 12.9986C9.20036 12.0028 9.68974 11.0882 10.4084 10.3703C11.127 9.65237 12.0425 9.16347 13.0393 8.9654C14.036 8.76733 15.0692 8.86899 16.0081 9.25751C16.947 9.64604 17.7495 10.304 18.3141 11.1482C18.8787 11.9923 19.1801 12.9848 19.1801 14.0001C19.1801 15.3615 18.6387 16.6672 17.6751 17.6299C16.7115 18.5926 15.4045 19.1334 14.0417 19.1334Z" fill="#F8F3F7"/>
</svg>
