<svg width="32" height="33" viewBox="0 0 32 33" fill="none" xmlns="http://www.w3.org/2000/svg">
<path d="M28.3415 16.4553C28.3415 16.0769 28.325 15.7148 28.2921 15.3364L31.3528 13.0162C32.011 12.5225 32.192 11.601 31.7807 10.877L28.7035 5.5619C28.5062 5.21335 28.1871 4.95 27.8074 4.82243C27.4277 4.69486 27.0143 4.71208 26.6466 4.87078L23.1087 6.36821C22.4999 5.94037 21.8581 5.5619 21.1834 5.24925L20.7062 1.44807C20.6075 0.625302 19.8999 0 19.0771 0H12.9393C12.1001 0 11.3925 0.625302 11.2938 1.44807L10.8166 5.24925C10.1419 5.5619 9.50015 5.94037 8.8913 6.36821L5.35341 4.87078C4.59646 4.54167 3.70787 4.83787 3.29649 5.5619L0.219346 10.8934C-0.192037 11.6175 -0.0110285 12.5225 0.647184 13.0326L3.70787 15.3528C3.63966 16.0917 3.63966 16.8354 3.70787 17.5743L0.647184 19.8945C-0.0110285 20.3881 -0.192037 21.3096 0.219346 22.0337L3.29649 27.3487C3.70787 28.0728 4.59646 28.369 5.35341 28.0399L8.8913 26.5424C9.50015 26.9703 10.1419 27.3487 10.8166 27.6614L11.2938 31.4626C11.3925 32.2853 12.1001 32.9106 12.9229 32.9106H19.0607C19.8835 32.9106 20.591 32.2853 20.6898 31.4626L21.167 27.6614C21.8416 27.3487 22.4834 26.9703 23.0922 26.5424L26.6301 28.0399C27.3871 28.369 28.2757 28.0728 28.6871 27.3487L31.7642 22.0337C32.1756 21.3096 31.9946 20.4046 31.3364 19.8945L28.2757 17.5743C28.325 17.1958 28.3415 16.8338 28.3415 16.4553ZM16.0658 22.2147C12.8899 22.2147 10.3065 19.6312 10.3065 16.4553C10.3065 13.2794 12.8899 10.696 16.0658 10.696C19.2417 10.696 21.8252 13.2794 21.8252 16.4553C21.8252 19.6312 19.2417 22.2147 16.0658 22.2147Z" fill="white"/>
</svg>
