<svg width="32" height="43" viewBox="0 0 32 43" fill="none" xmlns="http://www.w3.org/2000/svg">
<path d="M26.6667 0H5.33333C3.91885 0 2.56229 0.561903 1.5621 1.5621C0.561903 2.56229 0 3.91885 0 5.33333V37.3333C0 38.7478 0.561903 40.1044 1.5621 41.1046C2.56229 42.1048 3.91885 42.6667 5.33333 42.6667H26.6667C28.0812 42.6667 29.4377 42.1048 30.4379 41.1046C31.4381 40.1044 32 38.7478 32 37.3333V5.33333C32 3.91885 31.4381 2.56229 30.4379 1.5621C29.4377 0.561903 28.0812 0 26.6667 0V0ZM8 10.6667H24C24.3536 10.6667 24.6928 10.8071 24.9428 11.0572C25.1929 11.3072 25.3333 11.6464 25.3333 12C25.3333 12.3536 25.1929 12.6928 24.9428 12.9428C24.6928 13.1929 24.3536 13.3333 24 13.3333H8C7.64638 13.3333 7.30724 13.1929 7.05719 12.9428C6.80714 12.6928 6.66667 12.3536 6.66667 12C6.66667 11.6464 6.80714 11.3072 7.05719 11.0572C7.30724 10.8071 7.64638 10.6667 8 10.6667V10.6667ZM6.66667 17.3333C6.66667 16.9797 6.80714 16.6406 7.05719 16.3905C7.30724 16.1405 7.64638 16 8 16H24C24.3536 16 24.6928 16.1405 24.9428 16.3905C25.1929 16.6406 25.3333 16.9797 25.3333 17.3333C25.3333 17.687 25.1929 18.0261 24.9428 18.2761C24.6928 18.5262 24.3536 18.6667 24 18.6667H8C7.64638 18.6667 7.30724 18.5262 7.05719 18.2761C6.80714 18.0261 6.66667 17.687 6.66667 17.3333ZM8 21.3333H24C24.3536 21.3333 24.6928 21.4738 24.9428 21.7239C25.1929 21.9739 25.3333 22.313 25.3333 22.6667C25.3333 23.0203 25.1929 23.3594 24.9428 23.6095C24.6928 23.8595 24.3536 24 24 24H8C7.64638 24 7.30724 23.8595 7.05719 23.6095C6.80714 23.3594 6.66667 23.0203 6.66667 22.6667C6.66667 22.313 6.80714 21.9739 7.05719 21.7239C7.30724 21.4738 7.64638 21.3333 8 21.3333V21.3333ZM8 26.6667H16C16.3536 26.6667 16.6928 26.8071 16.9428 27.0572C17.1929 27.3072 17.3333 27.6464 17.3333 28C17.3333 28.3536 17.1929 28.6928 16.9428 28.9428C16.6928 29.1929 16.3536 29.3333 16 29.3333H8C7.64638 29.3333 7.30724 29.1929 7.05719 28.9428C6.80714 28.6928 6.66667 28.3536 6.66667 28C6.66667 27.6464 6.80714 27.3072 7.05719 27.0572C7.30724 26.8071 7.64638 26.6667 8 26.6667V26.6667Z" fill="#F8F3F7"/>
</svg>
