<svg width="320" height="320" viewBox="0 0 320 320" fill="none" xmlns="http://www.w3.org/2000/svg">
<path fill-rule="evenodd" clip-rule="evenodd" d="M320 160C320 248.366 248.366 320 160 320C71.6344 320 0 248.366 0 160C0 71.6344 71.6344 0 160 0C248.366 0 320 71.6344 320 160ZM85.0714 97.0185C82.2706 91.012 84.8692 83.8723 90.8757 81.0714C96.8822 78.2706 104.022 80.8692 106.823 86.8757L159.644 200.15L212.464 86.8757C215.265 80.8692 222.405 78.2706 228.411 81.0714C234.418 83.8723 237.016 91.0121 234.216 97.0185L170.823 232.965C168.743 237.426 164.268 240.007 159.643 239.892C155.018 240.007 150.544 237.426 148.464 232.965L85.0714 97.0185Z" fill="white"/>
</svg>
