<svg width="320" height="320" viewBox="0 0 320 320" fill="none" xmlns="http://www.w3.org/2000/svg">
<path fill-rule="evenodd" clip-rule="evenodd" d="M320 160C320 248.366 248.366 320 160 320C71.6344 320 0 248.366 0 160C0 71.6344 71.6344 0 160 0C248.366 0 320 71.6344 320 160ZM221.924 83.4379C223.324 80.4346 226.894 79.1353 229.897 80.5357L232.486 81.7427C235.489 83.1431 236.788 86.713 235.388 89.7162L167.478 235.348C167.475 235.355 167.472 235.361 167.469 235.368L166.912 236.562C165.743 239.069 163.063 240.389 160.462 239.942C157.861 240.389 155.18 239.069 154.011 236.562L85.5357 89.7163C84.1353 86.7131 85.4346 83.1432 88.4379 81.7428L91.0262 80.5358C94.0294 79.1354 97.5993 80.4347 98.9997 83.4379L160.462 215.244L221.924 83.4379Z" fill="white"/>
</svg>
