<svg width="320" height="320" viewBox="0 0 320 320" fill="none" xmlns="http://www.w3.org/2000/svg">
<path fill-rule="evenodd" clip-rule="evenodd" d="M320 160C320 248.366 248.366 320 160 320C71.6344 320 0 248.366 0 160C0 71.6344 71.6344 0 160 0C248.366 0 320 71.6344 320 160ZM217.31 86.0631C219.644 81.0577 225.594 78.8921 230.6 81.2262C235.605 83.5602 237.77 89.51 235.436 94.5154L170.353 234.087C168.514 238.031 164.43 240.212 160.331 239.817C156.233 240.212 152.149 238.031 150.309 234.087L85.2262 94.5155C82.8921 89.5101 85.0577 83.5603 90.0631 81.2262C95.0685 78.8922 101.018 81.0577 103.352 86.0631L160.331 208.255L217.31 86.0631Z" fill="white"/>
</svg>
