<svg width="32" height="20" viewBox="0 0 32 20" fill="none" xmlns="http://www.w3.org/2000/svg">
<path fill-rule="evenodd" clip-rule="evenodd" d="M5.7244 15.036C5.90021 14.9239 6.04723 14.7612 6.14109 14.5568L6.60246 13.5525L10.1457 5.83905C10.5612 4.93458 9.69229 3.9727 8.76721 4.31427L8.75987 4.31698C8.48822 4.41728 8.26402 4.62665 8.1353 4.89359L5.12394 11.4563L2.10581 4.89447C1.68989 3.99021 0.405027 4.04718 0.0683275 4.98564L0.0656554 4.99308C-0.0332167 5.26866 -0.0192339 5.57748 0.0995985 5.84909L4.11036 14.5595C4.3708 15.1251 5.0386 15.3713 5.59624 15.1074C5.64108 15.0861 5.68383 15.0623 5.7244 15.036Z" fill="white"/>
<path d="M21.5607 9.64485L17.861 6.7101C17.7875 6.65111 17.6821 6.70518 17.6821 6.79859V8.89764H14.2497V1.67138H19.2511V4.81751C19.2511 4.87158 19.2953 4.91582 19.3492 4.91582H20.8202C20.8742 4.91582 20.9183 4.87158 20.9183 4.81751V0.688215C20.9183 0.307239 20.6118 0 20.2318 0H13.269C12.889 0 12.5825 0.307239 12.5825 0.688215V18.7784C12.5825 19.1594 12.889 19.4667 13.269 19.4667H20.2318C20.6118 19.4667 20.9183 19.1594 20.9183 18.7784V14.6492C20.9183 14.5951 20.8742 14.5508 20.8202 14.5508H19.3492C19.2953 14.5508 19.2511 14.5951 19.2511 14.6492V17.7953H14.2497V10.569H17.6821V12.6681C17.6821 12.7615 17.7899 12.8156 17.861 12.7566L21.5607 9.82182C21.6195 9.77757 21.6195 9.68909 21.5607 9.64485ZM31.3135 0H24.3507C23.9707 0 23.6642 0.307239 23.6642 0.688215V4.81751C23.6642 4.87158 23.7083 4.91582 23.7623 4.91582H25.2333C25.2872 4.91582 25.3314 4.87158 25.3314 4.81751V1.67138H30.3328V8.89764H26.9005V6.79859C26.9005 6.70518 26.795 6.65111 26.7215 6.7101L23.0194 9.64485C22.963 9.68909 22.963 9.77512 23.0194 9.81936L26.7215 12.7566C26.7926 12.8131 26.9005 12.7615 26.9005 12.6681V10.569H30.3328V17.7953H25.3314V14.6492C25.3314 14.5951 25.2872 14.5508 25.2333 14.5508H23.7623C23.7083 14.5508 23.6642 14.5951 23.6642 14.6492V18.7784C23.6642 19.1594 23.9707 19.4667 24.3507 19.4667H31.3135C31.6935 19.4667 32 19.1594 32 18.7784V0.688215C32 0.307239 31.6935 0 31.3135 0Z" fill="white"/>
</svg>
